<svg id="svg" version="1.1" xmlns="http://www.w3.org/2000/svg" xmlns:xlink="http://www.w3.org/1999/xlink" width="400" height="283.2011535688536" viewBox="0, 0, 400,283.2011535688536"><g id="svgg"><path id="path0" d="M59.555 112.985 C 58.176 113.098,58.231 113.066,58.084 113.852 L 57.972 114.453 58.777 114.557 C 60.213 114.741,66.218 114.886,67.351 114.764 L 68.453 114.645 68.313 113.895 C 68.236 113.482,68.129 113.074,68.076 112.989 C 67.973 112.822,61.580 112.819,59.555 112.985 M55.391 114.550 C 55.319 114.844,55.258 115.158,55.255 115.250 C 55.252 115.342,55.175 115.479,55.083 115.554 C 54.975 115.644,54.990 115.722,55.125 115.777 C 55.450 115.908,55.370 116.170,55.042 116.047 C 54.793 115.954,54.782 115.976,54.965 116.203 C 55.109 116.380,55.121 116.487,55.001 116.527 C 54.847 116.579,54.411 118.070,54.255 119.083 C 54.226 119.267,54.053 119.885,53.869 120.458 C 53.644 121.159,53.597 121.501,53.726 121.503 C 53.848 121.504,53.856 121.549,53.750 121.628 C 53.658 121.695,53.481 121.975,53.357 122.250 C 53.233 122.525,53.023 122.978,52.891 123.258 C 52.759 123.537,52.698 123.888,52.756 124.039 C 52.814 124.190,52.776 124.449,52.673 124.615 C 52.510 124.876,52.498 124.860,52.586 124.500 C 52.666 124.176,52.649 124.139,52.511 124.333 C 52.414 124.471,52.377 124.790,52.430 125.042 C 52.499 125.369,52.451 125.529,52.264 125.601 C 52.120 125.656,52.040 125.764,52.087 125.839 C 52.134 125.915,52.088 126.029,51.985 126.093 C 51.852 126.175,51.864 126.250,52.024 126.352 C 52.203 126.465,52.193 126.495,51.976 126.497 C 51.717 126.500,51.571 126.835,51.394 127.833 C 51.353 128.063,51.281 128.400,51.233 128.583 C 51.161 128.854,51.178 128.870,51.320 128.667 C 51.546 128.344,51.545 128.488,51.317 129.142 C 51.217 129.430,51.067 129.624,50.984 129.573 C 50.901 129.522,50.833 129.554,50.833 129.643 C 50.833 129.732,50.927 129.843,51.042 129.890 C 51.156 129.936,51.100 129.981,50.917 129.989 C 50.650 130.002,50.632 130.036,50.823 130.157 C 51.016 130.279,51.024 130.382,50.864 130.696 L 50.665 131.083 50.767 130.687 C 50.840 130.403,50.812 130.327,50.668 130.416 C 50.544 130.492,50.504 130.730,50.564 131.028 C 50.633 131.374,50.605 131.482,50.469 131.398 C 50.342 131.319,50.312 131.370,50.379 131.545 C 50.435 131.692,50.392 131.846,50.282 131.887 C 50.151 131.936,50.197 132.057,50.417 132.243 C 50.600 132.398,50.656 132.477,50.542 132.419 C 50.427 132.361,50.333 132.379,50.333 132.460 C 50.333 132.540,50.765 132.737,51.292 132.898 C 52.639 133.309,52.948 133.378,52.729 133.219 C 52.595 133.122,52.673 132.635,53.004 131.500 C 53.839 128.641,54.369 126.776,54.854 125.000 C 56.035 120.665,56.326 119.626,56.888 117.736 C 57.218 116.629,57.560 115.531,57.649 115.296 C 57.796 114.911,57.776 114.878,57.447 114.950 C 57.144 115.016,57.125 114.997,57.333 114.834 C 57.535 114.677,57.492 114.660,57.111 114.743 C 56.765 114.819,56.672 114.793,56.763 114.645 C 56.849 114.506,56.801 114.477,56.611 114.550 C 56.458 114.608,56.333 114.596,56.333 114.522 C 56.333 114.020,55.516 114.045,55.391 114.550 M72.564 114.506 C 71.515 114.889,69.442 115.160,67.338 115.189 C 66.197 115.204,65.914 115.245,66.333 115.333 C 66.691 115.409,66.013 115.458,64.583 115.461 C 63.187 115.465,62.417 115.413,62.667 115.333 C 62.956 115.241,62.675 115.194,61.750 115.181 C 61.017 115.171,60.148 115.119,59.819 115.064 C 59.381 114.992,59.221 115.025,59.218 115.191 C 59.215 115.315,58.868 117.179,58.445 119.333 C 58.023 121.487,57.408 124.712,57.079 126.500 C 56.749 128.287,56.335 130.465,56.157 131.339 C 55.681 133.676,55.676 133.666,57.366 133.708 C 57.829 133.719,58.108 133.794,58.048 133.890 C 57.983 133.995,58.668 134.012,59.974 133.938 C 61.325 133.862,62.000 133.881,62.000 133.995 C 62.000 134.106,62.931 134.163,64.625 134.155 C 66.247 134.148,67.123 134.088,66.917 134.000 C 66.683 133.900,66.909 133.854,67.667 133.848 C 68.424 133.841,68.675 133.887,68.500 134.000 C 68.144 134.230,69.077 134.221,69.834 133.987 C 70.155 133.888,71.129 133.787,72.000 133.762 C 74.133 133.701,76.490 133.335,77.002 132.986 C 77.232 132.829,77.740 132.615,78.131 132.510 C 78.925 132.296,79.029 131.844,78.436 131.188 C 78.100 130.817,77.843 129.876,77.838 129.000 C 77.836 128.679,77.502 127.367,77.096 126.083 C 75.961 122.499,74.789 118.497,74.733 118.014 C 74.705 117.774,74.560 117.285,74.410 116.926 C 74.260 116.568,73.991 115.801,73.812 115.221 C 73.633 114.641,73.471 114.173,73.452 114.181 C 73.432 114.189,73.033 114.335,72.564 114.506 " stroke="none" fill="#dd4d27" fill-rule="evenodd"></path><path id="path1" d="M60.767 112.306 C 60.568 112.345,60.521 112.410,60.640 112.484 C 60.878 112.631,62.000 112.508,62.000 112.335 C 62.000 112.205,61.360 112.190,60.767 112.306 M70.583 112.753 C 71.317 112.891,72.135 113.079,72.402 113.169 C 73.166 113.430,73.091 113.239,72.305 112.925 C 71.916 112.769,71.069 112.610,70.423 112.572 L 69.250 112.502 70.583 112.753 M63.042 112.791 C 63.935 112.821,65.398 112.821,66.292 112.791 C 67.185 112.761,66.454 112.736,64.667 112.736 C 62.879 112.736,62.148 112.761,63.042 112.791 M59.544 112.953 C 59.797 112.991,60.172 112.990,60.377 112.951 C 60.582 112.911,60.375 112.880,59.917 112.881 C 59.458 112.882,59.291 112.915,59.544 112.953 M68.060 112.963 C 68.476 113.635,68.452 114.649,68.018 114.715 C 67.779 114.752,68.183 114.748,68.917 114.708 C 70.489 114.622,72.488 114.247,72.739 113.991 C 72.988 113.739,72.359 113.294,71.880 113.383 C 71.677 113.421,71.544 113.397,71.585 113.330 C 71.672 113.190,70.945 113.059,69.182 112.895 C 68.307 112.814,67.980 112.834,68.060 112.963 M57.312 113.242 C 55.727 113.679,55.767 114.041,57.438 114.404 C 57.938 114.513,57.965 114.491,58.078 113.884 C 58.144 113.536,58.284 113.195,58.390 113.128 C 58.679 112.945,58.214 112.994,57.312 113.242 M73.316 113.562 C 73.469 113.747,73.447 113.863,73.214 114.098 C 72.948 114.366,72.946 114.387,73.199 114.291 C 73.431 114.203,73.559 114.425,73.923 115.551 C 74.332 116.815,74.817 117.923,74.594 117.083 C 74.545 116.900,74.428 116.337,74.333 115.833 C 74.099 114.588,73.683 113.542,73.375 113.424 C 73.171 113.345,73.159 113.373,73.316 113.562 M60.377 114.786 C 60.631 114.825,61.006 114.824,61.211 114.784 C 61.416 114.744,61.208 114.713,60.750 114.714 C 60.292 114.716,60.124 114.748,60.377 114.786 M63.792 114.955 C 64.181 114.990,64.819 114.990,65.208 114.955 C 65.598 114.920,65.279 114.892,64.500 114.892 C 63.721 114.892,63.402 114.920,63.792 114.955 M70.208 114.948 C 70.369 114.990,70.631 114.990,70.792 114.948 C 70.952 114.906,70.821 114.872,70.500 114.872 C 70.179 114.872,70.048 114.906,70.208 114.948 M60.292 115.118 C 60.498 115.157,60.835 115.157,61.042 115.118 C 61.248 115.078,61.079 115.045,60.667 115.045 C 60.254 115.045,60.085 115.078,60.292 115.118 M68.128 115.121 C 68.428 115.158,68.878 115.157,69.128 115.119 C 69.378 115.081,69.133 115.051,68.583 115.052 C 68.033 115.053,67.828 115.084,68.128 115.121 M63.713 115.289 C 64.152 115.324,64.827 115.323,65.213 115.288 C 65.600 115.254,65.242 115.225,64.417 115.226 C 63.592 115.226,63.275 115.255,63.713 115.289 M74.722 118.167 C 74.862 118.747,76.416 123.918,77.051 125.917 C 77.610 127.676,77.751 127.980,77.798 127.534 C 77.832 127.209,77.712 126.688,77.505 126.260 C 77.312 125.861,77.079 125.068,76.987 124.497 C 76.895 123.927,76.668 123.163,76.483 122.800 C 76.298 122.437,76.001 121.574,75.824 120.882 C 75.648 120.190,75.314 119.240,75.082 118.770 C 74.851 118.301,74.689 118.029,74.722 118.167 M78.791 131.609 C 78.620 131.902,78.907 132.327,79.167 132.167 C 79.387 132.031,79.384 131.980,79.145 131.740 C 78.995 131.590,78.836 131.531,78.791 131.609 M75.627 133.451 C 75.834 133.491,76.134 133.490,76.294 133.448 C 76.453 133.406,76.283 133.374,75.917 133.375 C 75.550 133.377,75.420 133.411,75.627 133.451 M57.127 133.951 C 57.334 133.991,57.634 133.990,57.794 133.948 C 57.953 133.906,57.783 133.874,57.417 133.875 C 57.050 133.877,56.920 133.911,57.127 133.951 M60.288 134.120 C 60.584 134.157,61.109 134.158,61.455 134.122 C 61.800 134.086,61.558 134.055,60.917 134.055 C 60.275 134.054,59.992 134.083,60.288 134.120 M67.460 134.118 C 67.668 134.158,67.968 134.156,68.127 134.115 C 68.286 134.073,68.117 134.040,67.750 134.042 C 67.383 134.044,67.253 134.078,67.460 134.118 M62.997 135.125 C 62.996 135.377,62.919 136.483,62.826 137.583 C 62.625 139.966,62.720 140.833,63.181 140.833 C 63.484 140.833,63.500 140.675,63.500 137.750 C 63.500 135.120,63.463 134.667,63.250 134.667 C 63.089 134.667,62.999 134.830,62.997 135.125 M66.052 135.917 C 66.053 136.467,66.084 136.672,66.121 136.372 C 66.158 136.072,66.157 135.622,66.119 135.372 C 66.081 135.122,66.051 135.367,66.052 135.917 M66.000 140.543 C 66.000 140.733,66.424 140.807,68.022 140.898 C 70.376 141.031,70.668 140.959,68.965 140.667 C 66.857 140.306,66.000 140.270,66.000 140.543 M57.792 140.953 C 57.540 140.991,57.333 141.090,57.333 141.174 C 57.333 141.257,57.540 141.284,57.792 141.235 C 58.044 141.185,58.775 141.084,59.417 141.011 L 60.583 140.877 59.417 140.880 C 58.775 140.882,58.044 140.915,57.792 140.953 M58.375 143.115 C 58.535 143.157,58.798 143.157,58.958 143.115 C 59.119 143.073,58.987 143.039,58.667 143.039 C 58.346 143.039,58.215 143.073,58.375 143.115 M70.042 143.115 C 70.202 143.157,70.465 143.157,70.625 143.115 C 70.785 143.073,70.654 143.039,70.333 143.039 C 70.012 143.039,69.881 143.073,70.042 143.115 M59.958 143.287 C 60.256 143.324,60.744 143.324,61.042 143.287 C 61.340 143.250,61.096 143.220,60.500 143.220 C 59.904 143.220,59.660 143.250,59.958 143.287 M67.955 143.287 C 68.250 143.324,68.775 143.324,69.121 143.288 C 69.467 143.252,69.225 143.222,68.583 143.221 C 67.942 143.221,67.659 143.250,67.955 143.287 " stroke="none" fill="#aba3a1" fill-rule="evenodd"></path><path id="path2" d="M57.250 134.174 C 57.617 134.264,59.192 134.393,60.750 134.460 L 63.583 134.583 63.599 138.150 C 63.613 141.455,63.638 141.733,63.932 141.949 C 64.242 142.175,64.251 142.086,64.295 138.424 C 64.322 136.109,64.402 134.667,64.503 134.667 C 64.605 134.667,64.667 136.076,64.667 138.417 C 64.667 142.439,64.668 142.445,65.498 142.001 C 65.813 141.833,65.951 139.927,65.866 136.917 C 65.818 135.217,65.963 134.529,66.384 134.464 C 66.585 134.432,65.025 134.352,62.917 134.285 C 60.808 134.218,58.521 134.129,57.833 134.087 C 56.774 134.022,56.685 134.035,57.250 134.174 M68.375 134.282 C 68.535 134.323,68.798 134.323,68.958 134.282 C 69.119 134.240,68.987 134.205,68.667 134.205 C 68.346 134.205,68.215 134.240,68.375 134.282 M55.833 142.895 C 55.833 143.284,56.629 143.627,57.844 143.762 C 58.434 143.828,59.207 143.983,59.563 144.108 C 61.991 144.956,73.167 143.897,73.167 142.819 C 73.167 142.713,73.047 142.677,72.892 142.736 C 70.401 143.692,58.599 143.692,56.108 142.736 C 55.924 142.666,55.833 142.718,55.833 142.895 " stroke="none" fill="#4c4748" fill-rule="evenodd"></path><path id="path3" d="M57.390 114.948 C 57.581 114.999,57.668 115.136,57.619 115.307 C 57.576 115.459,57.259 116.521,56.915 117.667 C 56.329 119.619,56.052 120.603,54.854 125.000 C 54.365 126.794,53.820 128.709,53.004 131.500 C 52.471 133.323,52.414 133.227,54.167 133.478 C 56.106 133.757,56.489 133.784,56.398 133.637 C 56.352 133.561,56.206 133.500,56.073 133.500 C 55.760 133.500,55.770 133.240,56.157 131.339 C 56.335 130.465,56.756 128.250,57.093 126.417 C 57.429 124.583,58.056 121.297,58.486 119.115 C 58.916 116.932,59.226 115.120,59.176 115.089 C 59.125 115.058,58.633 114.995,58.083 114.949 C 57.533 114.903,57.222 114.903,57.390 114.948 M63.368 115.457 C 63.982 115.489,65.032 115.489,65.701 115.457 C 66.370 115.426,65.867 115.399,64.583 115.399 C 63.300 115.399,62.753 115.425,63.368 115.457 M52.582 124.146 C 52.664 124.415,52.644 124.506,52.520 124.429 C 52.401 124.356,52.376 124.417,52.448 124.605 C 52.547 124.862,52.578 124.853,52.724 124.525 C 52.843 124.260,52.829 124.099,52.676 123.953 C 52.504 123.790,52.486 123.828,52.582 124.146 M51.233 128.627 C 51.230 128.786,51.177 129.104,51.115 129.333 C 51.049 129.581,51.108 129.521,51.262 129.185 C 51.404 128.874,51.457 128.557,51.379 128.479 C 51.302 128.402,51.236 128.468,51.233 128.627 M50.724 130.609 C 50.706 130.925,50.741 130.985,50.847 130.817 C 51.029 130.530,51.044 130.167,50.875 130.167 C 50.806 130.167,50.738 130.366,50.724 130.609 M56.875 133.782 C 57.035 133.823,57.298 133.823,57.458 133.782 C 57.619 133.740,57.487 133.705,57.167 133.705 C 56.846 133.705,56.715 133.740,56.875 133.782 M70.583 133.833 L 70.083 133.961 70.583 133.964 C 70.858 133.965,71.271 133.907,71.500 133.833 L 71.917 133.700 71.500 133.703 C 71.271 133.705,70.858 133.763,70.583 133.833 M60.877 133.953 C 61.131 133.991,61.506 133.990,61.711 133.951 C 61.916 133.911,61.708 133.880,61.250 133.881 C 60.792 133.882,60.624 133.915,60.877 133.953 M67.125 133.954 C 67.423 133.991,67.910 133.991,68.208 133.954 C 68.506 133.917,68.262 133.887,67.667 133.887 C 67.071 133.887,66.827 133.917,67.125 133.954 " stroke="none" fill="#f0783c" fill-rule="evenodd"></path><path id="path4" d="M61.987 112.401 C 61.940 112.449,61.193 112.522,60.326 112.564 C 58.149 112.671,56.424 113.079,55.783 113.638 C 55.499 113.887,55.514 113.916,56.063 114.198 C 58.610 115.505,73.173 115.351,73.346 114.015 C 73.353 113.961,73.385 113.779,73.417 113.610 C 73.449 113.441,73.437 113.341,73.391 113.387 C 73.345 113.433,72.994 113.366,72.612 113.239 C 70.826 112.643,62.409 111.980,61.987 112.401 M69.334 112.914 C 73.207 113.375,73.924 113.892,71.406 114.409 C 66.631 115.388,55.128 114.805,56.291 113.643 C 57.115 112.818,64.881 112.385,69.334 112.914 M50.693 133.100 C 51.187 133.597,52.685 133.875,52.909 133.512 C 52.994 133.376,52.896 133.353,52.572 133.434 C 52.250 133.515,52.152 133.493,52.235 133.358 C 52.308 133.239,52.231 133.167,52.031 133.167 C 51.854 133.167,51.380 133.051,50.979 132.911 L 50.250 132.655 50.693 133.100 M58.711 134.120 C 58.964 134.158,59.339 134.157,59.544 134.117 C 59.749 134.078,59.542 134.046,59.083 134.048 C 58.625 134.049,58.457 134.081,58.711 134.120 M63.125 134.291 C 64.065 134.321,65.602 134.321,66.542 134.291 C 67.481 134.261,66.712 134.237,64.833 134.237 C 62.954 134.237,62.185 134.261,63.125 134.291 M63.208 134.605 C 63.472 134.683,63.500 134.981,63.500 137.762 C 63.500 141.204,63.628 140.908,62.163 140.842 C 61.748 140.824,60.623 140.896,59.663 141.003 C 58.702 141.109,57.669 141.217,57.366 141.243 C 56.806 141.289,55.833 142.043,55.833 142.430 C 55.833 142.711,56.278 142.851,56.805 142.736 C 57.159 142.660,57.199 142.678,57.000 142.826 C 56.808 142.969,56.904 142.989,57.417 142.910 C 57.914 142.834,58.020 142.854,57.833 142.986 C 57.649 143.118,57.801 143.139,58.417 143.068 C 58.996 143.002,59.178 143.023,59.012 143.139 C 58.849 143.254,59.211 143.287,60.179 143.245 C 61.153 143.203,61.405 143.226,61.000 143.320 C 60.646 143.403,62.023 143.456,64.500 143.456 C 66.947 143.456,68.350 143.402,68.000 143.321 C 67.583 143.225,67.812 143.200,68.799 143.233 C 69.674 143.262,70.103 143.223,69.966 143.126 C 69.829 143.029,70.043 143.007,70.550 143.068 C 71.108 143.134,71.316 143.107,71.238 142.980 C 71.160 142.854,71.291 142.834,71.667 142.917 C 72.056 143.002,72.175 142.982,72.090 142.844 C 72.007 142.709,72.105 142.687,72.428 142.768 C 72.747 142.848,72.848 142.826,72.766 142.693 C 72.691 142.571,72.742 142.539,72.908 142.603 C 73.388 142.787,73.182 142.214,72.578 141.684 C 71.954 141.136,71.953 141.136,70.917 141.092 C 67.549 140.950,66.012 140.773,65.944 140.518 C 65.904 140.370,65.863 140.604,65.853 141.036 C 65.838 141.629,65.755 141.864,65.511 141.994 C 64.666 142.446,64.667 142.448,64.667 138.417 C 64.667 136.076,64.605 134.667,64.503 134.667 C 64.402 134.667,64.322 136.109,64.295 138.424 C 64.251 142.086,64.242 142.175,63.932 141.949 C 63.638 141.733,63.613 141.456,63.599 138.153 C 63.584 134.717,63.571 134.587,63.250 134.554 C 62.991 134.527,62.982 134.538,63.208 134.605 M65.881 135.917 C 65.882 136.375,65.915 136.543,65.953 136.289 C 65.991 136.036,65.990 135.661,65.951 135.456 C 65.911 135.251,65.880 135.458,65.881 135.917 " stroke="none" fill="#8d6143" fill-rule="evenodd"></path></g></svg>